<svg xmlns="http://www.w3.org/2000/svg" xmlns:xlink="http://www.w3.org/1999/xlink" width="500" zoomAndPan="magnify" viewBox="0 0 375 374.999991" height="500" preserveAspectRatio="xMidYMid meet" version="1.0"><defs><g/></defs><path fill="#6438E1" d="M 107.023438 200.996094 C 109.722656 199.539062 111.558594 196.683594 111.558594 193.398438 C 111.558594 188.628906 107.691406 184.765625 102.925781 184.765625 L 85.824219 184.765625 C 81.054688 184.765625 77.191406 188.628906 77.191406 193.398438 C 77.191406 196.683594 79.023438 199.539062 81.722656 200.996094 C 80.210938 201.667969 78.210938 202.03125 75.621094 202.03125 L 85.824219 202.03125 C 90.191406 202.03125 93.796875 198.789062 94.375 194.582031 C 94.953125 198.789062 98.558594 202.03125 102.925781 202.03125 L 113.125 202.03125 C 110.535156 202.03125 108.535156 201.667969 107.023438 200.996094 " fill-opacity="1" fill-rule="nonzero"/><path fill="#6438E1" d="M 115.503906 162.433594 L 104.898438 162.433594 C 104.144531 162.433594 103.410156 162.511719 102.703125 162.660156 C 102.570312 162.691406 102.441406 162.71875 102.308594 162.753906 C 102.117188 162.800781 101.929688 162.851562 101.742188 162.910156 C 101.660156 162.9375 101.578125 162.964844 101.496094 162.992188 C 101.382812 163.03125 101.269531 163.070312 101.15625 163.113281 C 101.0625 163.148438 100.964844 163.1875 100.867188 163.226562 C 100.800781 163.253906 100.734375 163.285156 100.664062 163.3125 C 100.578125 163.351562 100.492188 163.390625 100.410156 163.429688 C 100.253906 163.5 100.101562 163.578125 99.949219 163.65625 C 99.734375 163.769531 99.523438 163.894531 99.316406 164.019531 C 99.242188 164.066406 99.167969 164.113281 99.097656 164.160156 C 98.980469 164.234375 98.867188 164.3125 98.757812 164.390625 C 98.582031 164.515625 98.40625 164.648438 98.238281 164.785156 C 98.152344 164.855469 98.070312 164.921875 97.988281 164.996094 C 97.914062 165.058594 97.839844 165.125 97.765625 165.1875 C 97.578125 165.359375 97.398438 165.535156 97.222656 165.71875 C 97.21875 165.722656 97.214844 165.730469 97.207031 165.734375 C 96.988281 165.964844 96.78125 166.207031 96.585938 166.453125 C 96.507812 166.550781 96.429688 166.648438 96.355469 166.75 C 96.179688 166.988281 96.015625 167.238281 95.855469 167.488281 C 95.746094 167.675781 95.636719 167.863281 95.535156 168.054688 C 95.441406 168.230469 95.351562 168.410156 95.265625 168.589844 C 95.234375 168.664062 95.203125 168.734375 95.167969 168.808594 C 95.140625 168.875 95.113281 168.941406 95.085938 169.011719 C 95.050781 169.09375 95.019531 169.175781 94.984375 169.261719 C 94.835938 169.652344 94.707031 170.058594 94.605469 170.472656 C 94.574219 170.589844 94.546875 170.710938 94.523438 170.832031 C 94.503906 170.921875 94.484375 171.011719 94.46875 171.101562 C 94.351562 171.730469 94.289062 172.378906 94.289062 173.039062 C 94.289062 172.492188 94.25 171.953125 94.167969 171.425781 C 94.140625 171.25 94.109375 171.074219 94.074219 170.902344 C 94.039062 170.730469 94 170.558594 93.957031 170.390625 C 93.933594 170.304688 93.914062 170.21875 93.886719 170.136719 C 93.8125 169.863281 93.722656 169.59375 93.621094 169.328125 C 93.519531 169.050781 93.402344 168.78125 93.28125 168.515625 C 93.210938 168.375 93.140625 168.230469 93.066406 168.09375 C 92.953125 167.875 92.832031 167.664062 92.703125 167.460938 C 92.632812 167.339844 92.558594 167.226562 92.480469 167.109375 C 92.429688 167.039062 92.382812 166.96875 92.335938 166.898438 C 92.207031 166.722656 92.074219 166.550781 91.941406 166.382812 C 91.863281 166.289062 91.785156 166.191406 91.703125 166.097656 C 91.648438 166.035156 91.59375 165.972656 91.535156 165.910156 C 91.421875 165.785156 91.304688 165.660156 91.183594 165.539062 C 91.066406 165.421875 90.941406 165.304688 90.816406 165.1875 C 90.628906 165.019531 90.433594 164.855469 90.230469 164.695312 C 90.03125 164.539062 89.828125 164.386719 89.613281 164.246094 C 87.921875 163.101562 85.882812 162.433594 83.683594 162.433594 L 70.1875 162.433594 C 71.9375 162.433594 73.078125 163.292969 73.078125 166.011719 L 73.078125 173.039062 C 73.078125 173.222656 73.082031 173.40625 73.089844 173.585938 C 73.101562 173.765625 73.113281 173.949219 73.132812 174.125 C 73.140625 174.214844 73.152344 174.304688 73.164062 174.390625 C 73.199219 174.675781 73.246094 174.957031 73.304688 175.234375 C 73.332031 175.367188 73.363281 175.5 73.394531 175.628906 C 73.496094 176.023438 73.617188 176.40625 73.757812 176.78125 C 73.792969 176.878906 73.832031 176.976562 73.871094 177.070312 C 73.898438 177.140625 73.925781 177.207031 73.957031 177.273438 C 73.996094 177.359375 74.03125 177.445312 74.074219 177.53125 C 74.109375 177.605469 74.144531 177.679688 74.179688 177.753906 C 74.328125 178.050781 74.488281 178.339844 74.664062 178.621094 C 74.722656 178.714844 74.78125 178.808594 74.839844 178.898438 C 75.050781 179.214844 75.28125 179.523438 75.523438 179.816406 C 75.621094 179.929688 75.714844 180.042969 75.8125 180.152344 C 75.933594 180.285156 76.058594 180.414062 76.183594 180.539062 C 76.25 180.605469 76.3125 180.667969 76.378906 180.730469 C 76.492188 180.835938 76.605469 180.941406 76.722656 181.042969 C 76.738281 181.054688 76.757812 181.070312 76.773438 181.085938 C 76.878906 181.175781 76.988281 181.265625 77.097656 181.355469 C 77.195312 181.429688 77.292969 181.507812 77.394531 181.582031 C 77.492188 181.652344 77.589844 181.722656 77.691406 181.792969 C 77.726562 181.816406 77.761719 181.839844 77.796875 181.863281 C 77.910156 181.9375 78.019531 182.011719 78.132812 182.078125 C 78.320312 182.195312 78.507812 182.300781 78.699219 182.402344 C 78.898438 182.511719 79.097656 182.609375 79.304688 182.703125 C 79.316406 182.710938 79.332031 182.71875 79.347656 182.722656 C 79.480469 182.78125 79.613281 182.839844 79.75 182.894531 C 79.785156 182.90625 79.820312 182.921875 79.851562 182.933594 C 80.277344 183.097656 80.710938 183.234375 81.15625 183.34375 C 81.25 183.367188 81.339844 183.386719 81.433594 183.40625 C 82.160156 183.5625 82.914062 183.648438 83.683594 183.648438 L 104.898438 183.648438 C 105.179688 183.648438 105.460938 183.636719 105.734375 183.613281 C 106.195312 183.578125 106.648438 183.511719 107.089844 183.417969 C 107.222656 183.390625 107.355469 183.359375 107.484375 183.328125 C 107.675781 183.28125 107.867188 183.226562 108.050781 183.171875 C 108.132812 183.144531 108.214844 183.117188 108.300781 183.089844 C 108.414062 183.050781 108.523438 183.011719 108.636719 182.96875 C 108.734375 182.929688 108.832031 182.894531 108.929688 182.855469 C 108.996094 182.824219 109.0625 182.796875 109.128906 182.769531 C 109.214844 182.730469 109.300781 182.691406 109.386719 182.652344 C 109.527344 182.585938 109.667969 182.515625 109.804688 182.445312 C 110.050781 182.316406 110.292969 182.175781 110.53125 182.027344 C 110.585938 181.992188 110.644531 181.957031 110.699219 181.921875 C 110.8125 181.847656 110.925781 181.769531 111.035156 181.691406 C 111.246094 181.542969 111.449219 181.386719 111.644531 181.226562 C 111.773438 181.117188 111.902344 181.007812 112.03125 180.890625 C 112.363281 180.589844 112.675781 180.265625 112.96875 179.921875 C 113.085938 179.785156 113.199219 179.644531 113.308594 179.5 C 113.640625 179.070312 113.9375 178.617188 114.203125 178.136719 C 114.945312 176.785156 115.402344 175.25 115.488281 173.621094 C 115.5 173.429688 115.503906 173.234375 115.503906 173.039062 L 115.503906 166.011719 C 115.503906 163.292969 116.644531 162.433594 118.398438 162.433594 L 115.503906 162.433594 " fill-opacity="1" fill-rule="nonzero"/><g fill="#6438E1" fill-opacity="1"><g transform="translate(131.285255, 194.624987)"><g><path d="M 25.734375 -19.703125 C 28.179688 -19.703125 30.015625 -19.050781 31.234375 -17.75 C 32.453125 -16.457031 33.0625 -14.40625 33.0625 -11.59375 L 33.0625 0 L 27.125 0 L 27.125 -11.59375 C 27.125 -12.519531 26.921875 -13.226562 26.515625 -13.71875 C 26.109375 -14.207031 25.40625 -14.453125 24.40625 -14.453125 C 23.175781 -14.453125 21.925781 -13.90625 20.65625 -12.8125 C 20.675781 -12.5625 20.6875 -12.15625 20.6875 -11.59375 L 20.6875 0 L 14.75 0 L 14.75 -11.59375 C 14.75 -12.519531 14.546875 -13.226562 14.140625 -13.71875 C 13.734375 -14.207031 13.03125 -14.453125 12.03125 -14.453125 C 10.820312 -14.453125 9.582031 -13.925781 8.3125 -12.875 L 8.3125 0 L 2.390625 0 L 2.390625 -19.28125 L 8.3125 -19.28125 L 8.3125 -17.78125 C 9.101562 -18.445312 9.898438 -18.929688 10.703125 -19.234375 C 11.515625 -19.546875 12.398438 -19.703125 13.359375 -19.703125 C 16.378906 -19.703125 18.445312 -18.734375 19.5625 -16.796875 C 20.582031 -17.796875 21.570312 -18.53125 22.53125 -19 C 23.5 -19.46875 24.566406 -19.703125 25.734375 -19.703125 Z M 25.734375 -19.703125 "/></g></g></g><g fill="#6438E1" fill-opacity="1"><g transform="translate(165.18099, 194.624987)"><g><path d="M 7.5625 -7.796875 C 7.8125 -6.710938 8.328125 -5.863281 9.109375 -5.25 C 9.898438 -4.632812 11.054688 -4.328125 12.578125 -4.328125 C 13.460938 -4.328125 14.304688 -4.429688 15.109375 -4.640625 C 15.921875 -4.859375 16.847656 -5.234375 17.890625 -5.765625 L 19.421875 -1.1875 C 18.242188 -0.53125 17.070312 -0.0703125 15.90625 0.1875 C 14.75 0.445312 13.363281 0.578125 11.75 0.578125 C 9.507812 0.578125 7.597656 0.15625 6.015625 -0.6875 C 4.429688 -1.539062 3.226562 -2.738281 2.40625 -4.28125 C 1.59375 -5.832031 1.1875 -7.628906 1.1875 -9.671875 C 1.1875 -11.804688 1.609375 -13.640625 2.453125 -15.171875 C 3.296875 -16.710938 4.429688 -17.875 5.859375 -18.65625 C 7.296875 -19.4375 8.898438 -19.828125 10.671875 -19.828125 C 13.503906 -19.828125 15.726562 -19.003906 17.34375 -17.359375 C 18.957031 -15.710938 19.765625 -13.3125 19.765625 -10.15625 L 19.765625 -7.796875 Z M 10.671875 -14.921875 C 9.847656 -14.921875 9.179688 -14.71875 8.671875 -14.3125 C 8.160156 -13.90625 7.800781 -13.203125 7.59375 -12.203125 L 13.53125 -12.203125 C 13.4375 -13.148438 13.15625 -13.835938 12.6875 -14.265625 C 12.226562 -14.703125 11.554688 -14.921875 10.671875 -14.921875 Z M 10.671875 -14.921875 "/></g></g></g><g fill="#6438E1" fill-opacity="1"><g transform="translate(184.59852, 194.624987)"><g><path d="M 7.5625 -7.796875 C 7.8125 -6.710938 8.328125 -5.863281 9.109375 -5.25 C 9.898438 -4.632812 11.054688 -4.328125 12.578125 -4.328125 C 13.460938 -4.328125 14.304688 -4.429688 15.109375 -4.640625 C 15.921875 -4.859375 16.847656 -5.234375 17.890625 -5.765625 L 19.421875 -1.1875 C 18.242188 -0.53125 17.070312 -0.0703125 15.90625 0.1875 C 14.75 0.445312 13.363281 0.578125 11.75 0.578125 C 9.507812 0.578125 7.597656 0.15625 6.015625 -0.6875 C 4.429688 -1.539062 3.226562 -2.738281 2.40625 -4.28125 C 1.59375 -5.832031 1.1875 -7.628906 1.1875 -9.671875 C 1.1875 -11.804688 1.609375 -13.640625 2.453125 -15.171875 C 3.296875 -16.710938 4.429688 -17.875 5.859375 -18.65625 C 7.296875 -19.4375 8.898438 -19.828125 10.671875 -19.828125 C 13.503906 -19.828125 15.726562 -19.003906 17.34375 -17.359375 C 18.957031 -15.710938 19.765625 -13.3125 19.765625 -10.15625 L 19.765625 -7.796875 Z M 10.671875 -14.921875 C 9.847656 -14.921875 9.179688 -14.71875 8.671875 -14.3125 C 8.160156 -13.90625 7.800781 -13.203125 7.59375 -12.203125 L 13.53125 -12.203125 C 13.4375 -13.148438 13.15625 -13.835938 12.6875 -14.265625 C 12.226562 -14.703125 11.554688 -14.921875 10.671875 -14.921875 Z M 10.671875 -14.921875 "/></g></g></g><g fill="#6438E1" fill-opacity="1"><g transform="translate(204.016047, 194.624987)"><g><path d="M 9.609375 -13.359375 L 9.609375 -6.84375 C 9.609375 -6.09375 9.734375 -5.566406 9.984375 -5.265625 C 10.234375 -4.960938 10.6875 -4.8125 11.34375 -4.8125 C 12.09375 -4.8125 12.765625 -4.898438 13.359375 -5.078125 L 13.359375 -0.03125 C 12.585938 0.125 11.929688 0.238281 11.390625 0.3125 C 10.859375 0.394531 10.285156 0.4375 9.671875 0.4375 C 7.648438 0.4375 6.144531 -0.00390625 5.15625 -0.890625 C 4.175781 -1.773438 3.6875 -3.046875 3.6875 -4.703125 L 3.6875 -13.359375 L 1.015625 -13.359375 L 1.015625 -18.609375 L 3.6875 -18.609375 L 3.6875 -25.078125 L 9.609375 -25.078125 L 9.609375 -18.609375 L 13.96875 -18.609375 L 13.96875 -13.359375 Z M 9.609375 -13.359375 "/></g></g></g><g fill="#6438E1" fill-opacity="1"><g transform="translate(217.642297, 194.624987)"><g><path d="M 13.5 -19.828125 C 15.21875 -19.828125 16.742188 -19.445312 18.078125 -18.6875 C 19.410156 -17.925781 20.457031 -16.78125 21.21875 -15.25 C 21.976562 -13.71875 22.359375 -11.847656 22.359375 -9.640625 C 22.359375 -7.410156 21.976562 -5.53125 21.21875 -4 C 20.457031 -2.46875 19.410156 -1.320312 18.078125 -0.5625 C 16.742188 0.195312 15.21875 0.578125 13.5 0.578125 C 11.65625 0.578125 9.925781 -0.0351562 8.3125 -1.265625 L 8.3125 0 L 2.390625 0 L 2.390625 -28.828125 L 8.3125 -28.828125 L 8.3125 -18 C 9.925781 -19.21875 11.65625 -19.828125 13.5 -19.828125 Z M 12.203125 -4.671875 C 13.515625 -4.671875 14.503906 -5.085938 15.171875 -5.921875 C 15.847656 -6.765625 16.1875 -8.003906 16.1875 -9.640625 C 16.1875 -11.253906 15.847656 -12.476562 15.171875 -13.3125 C 14.503906 -14.15625 13.515625 -14.578125 12.203125 -14.578125 C 10.898438 -14.578125 9.601562 -14.113281 8.3125 -13.1875 L 8.3125 -6.0625 C 9.601562 -5.132812 10.898438 -4.671875 12.203125 -4.671875 Z M 12.203125 -4.671875 "/></g></g></g><g fill="#6438E1" fill-opacity="1"><g transform="translate(239.819207, 194.624987)"><g><path d="M 8.390625 0.4375 C 6.359375 0.4375 4.847656 -0.00390625 3.859375 -0.890625 C 2.878906 -1.773438 2.390625 -3.046875 2.390625 -4.703125 L 2.390625 -28.828125 L 8.3125 -28.828125 L 8.3125 -6.84375 C 8.3125 -6.09375 8.4375 -5.566406 8.6875 -5.265625 C 8.9375 -4.960938 9.390625 -4.8125 10.046875 -4.8125 C 10.796875 -4.8125 11.46875 -4.898438 12.0625 -5.078125 L 12.0625 -0.03125 C 11.289062 0.125 10.632812 0.238281 10.09375 0.3125 C 9.5625 0.394531 8.992188 0.4375 8.390625 0.4375 Z M 8.390625 0.4375 "/></g></g></g><g fill="#6438E1" fill-opacity="1"><g transform="translate(251.367404, 194.624987)"><g><path d="M 9.875 -19.28125 C 12.375 -19.28125 14.273438 -18.945312 15.578125 -18.28125 C 16.890625 -17.613281 17.757812 -16.722656 18.1875 -15.609375 C 18.625 -14.492188 18.84375 -13.070312 18.84375 -11.34375 L 18.84375 0 L 12.921875 0 L 12.921875 -1.5625 C 12.117188 -0.84375 11.332031 -0.328125 10.5625 -0.015625 C 9.789062 0.285156 8.941406 0.4375 8.015625 0.4375 C 5.828125 0.4375 4.113281 -0.132812 2.875 -1.28125 C 1.632812 -2.425781 1.015625 -4.019531 1.015625 -6.0625 C 1.015625 -8.132812 1.644531 -9.722656 2.90625 -10.828125 C 4.175781 -11.941406 5.929688 -12.5 8.171875 -12.5 C 10.035156 -12.5 11.617188 -12.160156 12.921875 -11.484375 C 12.890625 -12.117188 12.789062 -12.625 12.625 -13 C 12.457031 -13.375 12.117188 -13.660156 11.609375 -13.859375 C 11.097656 -14.066406 10.351562 -14.171875 9.375 -14.171875 L 5.484375 -14.171875 L 5.484375 -19.28125 Z M 9.265625 -4.125 C 10.421875 -4.125 11.640625 -4.644531 12.921875 -5.6875 L 12.921875 -7.5 C 11.828125 -8.019531 10.722656 -8.28125 9.609375 -8.28125 C 8.796875 -8.28125 8.160156 -8.101562 7.703125 -7.75 C 7.242188 -7.394531 7.015625 -6.859375 7.015625 -6.140625 C 7.015625 -5.390625 7.207031 -4.863281 7.59375 -4.5625 C 7.976562 -4.269531 8.535156 -4.125 9.265625 -4.125 Z M 9.265625 -4.125 "/></g></g></g><g fill="#6438E1" fill-opacity="1"><g transform="translate(271.057467, 194.624987)"><g><path d="M 11 0.578125 C 7.820312 0.554688 5.390625 -0.34375 3.703125 -2.125 C 2.023438 -3.914062 1.1875 -6.429688 1.1875 -9.671875 C 1.1875 -12.898438 2.023438 -15.394531 3.703125 -17.15625 C 5.390625 -18.914062 7.820312 -19.804688 11 -19.828125 C 12.164062 -19.828125 13.15625 -19.757812 13.96875 -19.625 C 14.789062 -19.488281 15.644531 -19.238281 16.53125 -18.875 L 16.53125 -13.5 C 15.6875 -13.90625 14.894531 -14.1875 14.15625 -14.34375 C 13.414062 -14.5 12.59375 -14.578125 11.6875 -14.578125 C 10.164062 -14.554688 9.0625 -14.132812 8.375 -13.3125 C 7.695312 -12.5 7.359375 -11.300781 7.359375 -9.71875 C 7.359375 -8.082031 7.6875 -6.832031 8.34375 -5.96875 C 9.007812 -5.101562 10.066406 -4.671875 11.515625 -4.671875 C 12.335938 -4.671875 13.128906 -4.796875 13.890625 -5.046875 C 14.648438 -5.296875 15.4375 -5.679688 16.25 -6.203125 L 17.921875 -1.296875 C 15.835938 -0.046875 13.53125 0.578125 11 0.578125 Z M 11 0.578125 "/></g></g></g><g fill="#6438E1" fill-opacity="1"><g transform="translate(288.294751, 194.624987)"><g><path d="M 9.875 -6.4375 L 8.3125 -4.765625 L 8.3125 0 L 2.390625 0 L 2.390625 -28.828125 L 8.3125 -28.828125 L 8.3125 -12.171875 L 14.34375 -18.609375 L 21.4375 -18.609375 L 13.765625 -10.5 L 22.046875 0 L 14.953125 0 Z M 9.875 -6.4375 "/></g></g></g></svg>