<svg xmlns="http://www.w3.org/2000/svg" xmlns:xlink="http://www.w3.org/1999/xlink" width="500" zoomAndPan="magnify" viewBox="0 0 375 374.999991" height="500" preserveAspectRatio="xMidYMid meet" version="1.0"><rect x="-37.5" width="450" fill="#fffaf9" y="-37.499999" height="449.999989" fill-opacity="0"/><path fill="#4040d3" d="M 264.679688 293.289062 C 279.902344 285.058594 290.246094 268.960938 290.246094 250.4375 C 290.246094 223.550781 268.453125 201.757812 241.566406 201.757812 L 145.136719 201.757812 C 118.253906 201.757812 96.460938 223.550781 96.460938 250.4375 C 96.460938 268.960938 106.796875 285.058594 122.023438 293.289062 C 113.492188 297.066406 102.226562 299.121094 87.621094 299.121094 L 145.136719 299.121094 C 169.757812 299.121094 190.097656 280.839844 193.351562 257.113281 C 196.613281 280.839844 216.949219 299.121094 241.566406 299.121094 L 299.085938 299.121094 C 284.480469 299.121094 273.210938 297.066406 264.679688 293.289062 " fill-opacity="1" fill-rule="nonzero"/><path fill="#4040d3" d="M 312.5 75.847656 L 252.691406 75.847656 C 248.453125 75.847656 244.3125 76.296875 240.320312 77.132812 C 239.574219 77.292969 238.835938 77.464844 238.097656 77.644531 C 237.019531 77.917969 235.957031 78.210938 234.910156 78.535156 C 234.4375 78.683594 233.972656 78.835938 233.511719 78.988281 C 232.867188 79.207031 232.238281 79.4375 231.605469 79.675781 C 231.058594 79.886719 230.511719 80.097656 229.960938 80.324219 C 229.585938 80.476562 229.207031 80.640625 228.828125 80.800781 C 228.339844 81.011719 227.855469 81.238281 227.378906 81.460938 C 226.5 81.867188 225.640625 82.296875 224.789062 82.746094 C 223.574219 83.390625 222.382812 84.074219 221.222656 84.792969 C 220.804688 85.050781 220.390625 85.316406 219.980469 85.582031 C 219.335938 86.007812 218.695312 86.4375 218.070312 86.878906 C 217.070312 87.59375 216.097656 88.335938 215.148438 89.101562 C 214.667969 89.492188 214.1875 89.886719 213.722656 90.289062 C 213.304688 90.648438 212.886719 91.011719 212.480469 91.382812 C 211.421875 92.34375 210.410156 93.335938 209.425781 94.367188 C 209.394531 94.398438 209.367188 94.433594 209.328125 94.460938 C 208.105469 95.757812 206.929688 97.117188 205.816406 98.511719 C 205.378906 99.0625 204.953125 99.621094 204.535156 100.1875 C 203.539062 101.539062 202.601562 102.929688 201.71875 104.355469 C 201.082031 105.398438 200.472656 106.460938 199.894531 107.546875 C 199.363281 108.535156 198.863281 109.539062 198.390625 110.566406 C 198.203125 110.972656 198.019531 111.378906 197.839844 111.792969 C 197.679688 112.167969 197.515625 112.546875 197.359375 112.929688 C 197.164062 113.394531 196.984375 113.867188 196.800781 114.339844 C 195.949219 116.554688 195.230469 118.835938 194.652344 121.171875 C 194.488281 121.84375 194.328125 122.515625 194.1875 123.195312 C 194.082031 123.695312 193.980469 124.203125 193.886719 124.710938 C 193.234375 128.261719 192.886719 131.914062 192.886719 135.65625 C 192.886719 132.558594 192.648438 129.515625 192.195312 126.542969 C 192.042969 125.554688 191.871094 124.574219 191.671875 123.601562 C 191.46875 122.628906 191.246094 121.664062 191.003906 120.707031 C 190.878906 120.230469 190.75 119.75 190.613281 119.28125 C 190.179688 117.730469 189.671875 116.214844 189.109375 114.714844 C 188.535156 113.160156 187.886719 111.636719 187.183594 110.148438 C 186.800781 109.339844 186.398438 108.535156 185.984375 107.753906 C 185.34375 106.539062 184.660156 105.347656 183.941406 104.183594 C 183.527344 103.519531 183.109375 102.863281 182.671875 102.214844 C 182.402344 101.820312 182.128906 101.425781 181.851562 101.03125 C 181.140625 100.035156 180.394531 99.0625 179.628906 98.113281 C 179.195312 97.574219 178.757812 97.039062 178.304688 96.515625 C 177.992188 96.15625 177.671875 95.792969 177.347656 95.441406 C 176.707031 94.734375 176.046875 94.042969 175.367188 93.367188 C 174.695312 92.6875 174 92.027344 173.292969 91.382812 C 172.230469 90.417969 171.132812 89.492188 170 88.605469 C 168.867188 87.714844 167.714844 86.867188 166.515625 86.066406 C 156.96875 79.613281 145.464844 75.847656 133.078125 75.847656 L 56.96875 75.847656 C 66.847656 75.847656 73.273438 80.699219 73.273438 96.019531 L 73.273438 135.65625 C 73.273438 136.6875 73.300781 137.710938 73.351562 138.730469 C 73.402344 139.753906 73.480469 140.765625 73.582031 141.769531 C 73.632812 142.269531 73.691406 142.769531 73.753906 143.273438 C 73.957031 144.875 74.226562 146.460938 74.558594 148.023438 C 74.714844 148.769531 74.886719 149.511719 75.070312 150.246094 C 75.625 152.464844 76.304688 154.628906 77.097656 156.738281 C 77.304688 157.289062 77.523438 157.835938 77.746094 158.386719 C 77.90625 158.761719 78.066406 159.140625 78.230469 159.515625 C 78.441406 160.007812 78.660156 160.488281 78.882812 160.96875 C 79.085938 161.390625 79.285156 161.8125 79.492188 162.230469 C 80.324219 163.910156 81.238281 165.542969 82.214844 167.125 C 82.546875 167.648438 82.875 168.167969 83.21875 168.679688 C 84.410156 170.476562 85.699219 172.210938 87.074219 173.867188 C 87.605469 174.503906 88.148438 175.128906 88.703125 175.742188 C 89.378906 176.492188 90.074219 177.230469 90.789062 177.941406 C 91.15625 178.304688 91.519531 178.664062 91.890625 179.011719 C 92.523438 179.613281 93.164062 180.203125 93.820312 180.765625 C 93.914062 180.851562 94.015625 180.9375 94.109375 181.019531 C 94.710938 181.535156 95.316406 182.035156 95.9375 182.53125 C 96.492188 182.96875 97.046875 183.390625 97.609375 183.808594 C 98.160156 184.210938 98.714844 184.613281 99.28125 184.996094 C 99.480469 185.136719 99.679688 185.273438 99.886719 185.40625 C 100.511719 185.828125 101.144531 186.234375 101.785156 186.621094 C 102.824219 187.265625 103.886719 187.871094 104.96875 188.449219 C 106.085938 189.046875 107.222656 189.613281 108.378906 190.136719 C 108.460938 190.171875 108.550781 190.214844 108.632812 190.25 C 109.378906 190.585938 110.136719 190.910156 110.902344 191.210938 C 111.097656 191.285156 111.285156 191.363281 111.472656 191.433594 C 113.863281 192.359375 116.316406 193.132812 118.832031 193.75 C 119.351562 193.875 119.871094 193.992188 120.394531 194.109375 C 124.480469 194.988281 128.726562 195.460938 133.078125 195.460938 L 252.691406 195.460938 C 254.285156 195.460938 255.859375 195.398438 257.414062 195.277344 C 260.015625 195.070312 262.570312 194.699219 265.0625 194.175781 C 265.804688 194.015625 266.546875 193.847656 267.285156 193.664062 C 268.359375 193.390625 269.425781 193.097656 270.476562 192.773438 C 270.941406 192.625 271.40625 192.476562 271.871094 192.320312 C 272.511719 192.101562 273.148438 191.871094 273.773438 191.632812 C 274.324219 191.421875 274.875 191.210938 275.417969 190.984375 C 275.800781 190.828125 276.175781 190.667969 276.554688 190.507812 C 277.039062 190.296875 277.523438 190.078125 278.003906 189.847656 C 278.800781 189.476562 279.585938 189.085938 280.359375 188.6875 C 281.753906 187.957031 283.125 187.171875 284.457031 186.332031 C 284.773438 186.132812 285.09375 185.925781 285.40625 185.726562 C 286.046875 185.300781 286.683594 184.871094 287.308594 184.429688 C 288.484375 183.59375 289.628906 182.71875 290.734375 181.804688 C 291.472656 181.191406 292.199219 180.566406 292.90625 179.925781 C 294.78125 178.214844 296.554688 176.386719 298.207031 174.453125 C 298.867188 173.679688 299.503906 172.890625 300.128906 172.082031 C 301.992188 169.660156 303.667969 167.09375 305.152344 164.398438 C 309.339844 156.769531 311.914062 148.121094 312.410156 138.925781 C 312.46875 137.84375 312.5 136.75 312.5 135.65625 L 312.5 96.019531 C 312.5 80.699219 318.921875 75.847656 328.808594 75.847656 L 312.5 75.847656 " fill-opacity="1" fill-rule="nonzero"/></svg>